<?xml version="1.0" encoding="UTF-8"?>
<svg version="1.1" xmlns="http://www.w3.org/2000/svg" width="512" height="512">
<path d="M0 0 C0.91297852 0.16628906 1.82595703 0.33257812 2.76660156 0.50390625 C44.3986228 8.16363077 83.16052206 26.40624883 116 53 C116.54446777 53.44005371 117.08893555 53.88010742 117.64990234 54.33349609 C131.72173929 65.81174863 144.93680647 78.57719064 156 93 C156.75925781 93.93070312 157.51851563 94.86140625 158.30078125 95.8203125 C166.14965998 105.60950415 172.61917978 116.21296474 179 127 C179.58394531 127.97743164 179.58394531 127.97743164 180.1796875 128.97460938 C195.3115154 154.60200963 204.68826154 184.6455857 209 214 C209.17732666 215.20462891 209.35465332 216.40925781 209.53735352 217.65039062 C211.136325 229.30767354 211.3584053 240.87186098 211.3125 252.625 C211.30976578 254.07983292 211.30976578 254.07983292 211.30697632 255.5640564 C211.26159053 269.91321045 210.76572938 283.88280259 208 298 C207.83371094 298.91297852 207.66742188 299.82595703 207.49609375 300.76660156 C199.2897169 345.36977944 179.01435466 387.06279656 149 421 C148.27554687 421.8353125 147.55109375 422.670625 146.8046875 423.53125 C137.0599286 434.60647413 126.66037586 444.95114912 115 454 C114.06542969 454.763125 113.13085938 455.52625 112.16796875 456.3125 C79.90395064 482.15684827 40.47895618 498.62720036 0 506 C-0.83563477 506.16371094 -1.67126953 506.32742188 -2.53222656 506.49609375 C-30.24163521 511.78656862 -62.35093304 511.41678597 -90 506 C-90.91297852 505.83371094 -91.82595703 505.66742188 -92.76660156 505.49609375 C-134.3986228 497.83636923 -173.16052206 479.59375117 -206 453 C-206.54446777 452.55994629 -207.08893555 452.11989258 -207.64990234 451.66650391 C-221.72173929 440.18825137 -234.93680647 427.42280936 -246 413 C-246.75925781 412.06929688 -247.51851562 411.13859375 -248.30078125 410.1796875 C-256.14965998 400.39049585 -262.61917978 389.78703526 -269 379 C-269.58394531 378.02256836 -269.58394531 378.02256836 -270.1796875 377.02539062 C-285.3115154 351.39799037 -294.68826154 321.3544143 -299 292 C-299.17732666 290.79537109 -299.35465332 289.59074219 -299.53735352 288.34960938 C-301.136325 276.69232646 -301.3584053 265.12813902 -301.3125 253.375 C-301.31067719 252.40511139 -301.30885437 251.43522278 -301.30697632 250.4359436 C-301.26159053 236.08678955 -300.76572938 222.11719741 -298 208 C-297.83371094 207.08702148 -297.66742188 206.17404297 -297.49609375 205.23339844 C-289.2897169 160.63022056 -269.01435466 118.93720344 -239 85 C-238.27554688 84.1646875 -237.55109375 83.329375 -236.8046875 82.46875 C-227.0599286 71.39352587 -216.66037586 61.04885088 -205 52 C-204.06542969 51.236875 -203.13085938 50.47375 -202.16796875 49.6875 C-169.90395064 23.84315173 -130.47895618 7.37279964 -90 0 C-89.16436523 -0.16371094 -88.32873047 -0.32742188 -87.46777344 -0.49609375 C-59.75836479 -5.78656862 -27.64906696 -5.41678597 0 0 Z M-217 98 C-238.22557 122.24686735 -254.69686502 150.46897631 -265 181 C-265.24830566 181.73379883 -265.49661133 182.46759766 -265.75244141 183.22363281 C-269.62223935 194.91079804 -272.0244982 206.86240308 -274 219 C-274.18006592 220.07459473 -274.18006592 220.07459473 -274.36376953 221.17089844 C-283.66347816 279.07579059 -266.7932996 340.88310366 -232.7277832 388.01000977 C-203.56309288 427.64985853 -163.70784104 457.23776433 -117 473 C-115.89930176 473.3724585 -115.89930176 473.3724585 -114.77636719 473.75244141 C-103.08920196 477.62223935 -91.13759692 480.0244982 -79 482 C-78.28360352 482.12004395 -77.56720703 482.24008789 -76.82910156 482.36376953 C-18.92420941 491.66347816 42.88310366 474.7932996 90.01000977 440.7277832 C129.64985853 411.56309288 159.23776433 371.70784104 175 325 C175.24830566 324.26620117 175.49661133 323.53240234 175.75244141 322.77636719 C179.62223935 311.08920196 182.0244982 299.13759692 184 287 C184.12004395 286.28360352 184.24008789 285.56720703 184.36376953 284.82910156 C193.66347816 226.92420941 176.7932996 165.11689634 142.7277832 117.98999023 C113.56309288 78.35014147 73.70784104 48.76223567 27 33 C26.26620117 32.75169434 25.53240234 32.50338867 24.77636719 32.24755859 C13.08920196 28.37776065 1.13759692 25.9755018 -11 24 C-11.71639648 23.87995605 -12.43279297 23.75991211 -13.17089844 23.63623047 C-88.52437035 11.53422481 -165.71898356 43.06275021 -217 98 Z " fill="#000000" transform="translate(301,3)"/>
<path d="M0 0 C6.00497679 3.72429873 10.0686053 9.23106922 12.03070068 15.96386719 C13.4218921 22.65212958 13.21308154 29.41459938 13.19238281 36.21484375 C13.19509717 37.71879241 13.19866059 39.22273973 13.20300293 40.72668457 C13.21207635 44.78864335 13.20860362 48.85049989 13.20224476 52.91246033 C13.19715852 57.17634341 13.20188348 61.44021811 13.20501709 65.70410156 C13.20864911 72.86264609 13.20387772 80.02114926 13.19433594 87.1796875 C13.18345286 95.43955932 13.18697898 103.69933238 13.19798875 111.95920181 C13.20708342 119.06860317 13.20833625 126.17797492 13.20311141 133.28738022 C13.20000368 137.52579109 13.19954931 141.76415564 13.20618439 146.00256348 C13.21198901 149.98844494 13.20790428 153.97419986 13.19639587 157.96006775 C13.19376589 159.4172698 13.19448575 160.87448262 13.1989212 162.3316803 C13.23153068 174.13943622 12.81573914 183.85324636 4.93359375 193.19921875 C-1.25213588 198.22512408 -7.33702983 199.75173152 -15.19140625 199.5703125 C-23.09806018 198.54975255 -28.63518692 194.27855484 -33.69140625 188.359375 C-36.74514348 183.56188441 -37.3180963 178.90918249 -37.33383179 173.31217957 C-37.3383629 172.64370052 -37.34289401 171.97522148 -37.34756243 171.28648549 C-37.36016323 169.0596526 -37.3585889 166.83306564 -37.35693359 164.60620117 C-37.36292157 163.00417264 -37.36972774 161.402147 -37.37728882 159.80012512 C-37.39492905 155.45702394 -37.39964337 151.11400161 -37.40092039 146.77086806 C-37.40234371 144.0547547 -37.40661676 141.33866127 -37.41191483 138.62255287 C-37.43040885 129.13922481 -37.43858626 119.65595292 -37.43701172 110.17260742 C-37.43581062 101.34526055 -37.45690831 92.51815831 -37.48849905 83.69087332 C-37.51468697 76.10170318 -37.52537795 68.5126128 -37.5241009 60.92339784 C-37.52359199 56.39535403 -37.52923584 51.86752767 -37.550457 47.33952904 C-37.56988178 43.07863793 -37.5699351 38.81817076 -37.55542374 34.55726433 C-37.55333975 32.99846525 -37.558012 31.43963933 -37.57014465 29.88088608 C-37.63862639 20.46883417 -37.36847248 12.43266015 -31.171875 4.89453125 C-21.57393305 -2.96366155 -11.52276398 -5.85381058 0 0 Z " fill="#000000" transform="translate(375.06640625,157.80078125)"/>
<path d="M0 0 C5.88144164 4.15101749 9.34318466 8.70402026 11.296875 15.62109375 C11.55414391 18.89548969 11.55414391 18.89548969 11.56430054 22.50813293 C11.56883165 23.17661198 11.57336276 23.84509102 11.57803118 24.53382701 C11.59063198 26.7606599 11.58905765 28.98724686 11.58740234 31.21411133 C11.59339032 32.81613986 11.60019649 34.4181655 11.60775757 36.02018738 C11.6253978 40.36328856 11.63011212 44.70631089 11.63138914 49.04944444 C11.63281246 51.7655578 11.63708551 54.48165123 11.64238358 57.19775963 C11.6608776 66.68108769 11.66905501 76.16435958 11.66748047 85.64770508 C11.66627937 94.47505195 11.68737706 103.30215419 11.7189678 112.12943918 C11.74515572 119.71860932 11.7558467 127.3076997 11.75456965 134.89691466 C11.75406074 139.42495847 11.75970459 143.95278483 11.78092575 148.48078346 C11.80035053 152.74167457 11.80040385 157.00214174 11.78589249 161.26304817 C11.7838085 162.82184725 11.78848075 164.38067317 11.8006134 165.93942642 C11.86909514 175.35147833 11.59894123 183.38765235 5.40234375 190.92578125 C-1.37145146 196.47173986 -7.0281687 199.2414221 -15.921875 198.97265625 C-24.49193469 197.88936219 -29.64480416 193.46583995 -34.890625 186.87109375 C-39.60496239 178.41779913 -38.99053585 169.00871228 -38.96191406 159.60546875 C-38.96462842 158.10152009 -38.96819184 156.59757277 -38.97253418 155.09362793 C-38.9816076 151.03166915 -38.97813487 146.96981261 -38.97177601 142.90785217 C-38.96668977 138.64396909 -38.97141473 134.38009439 -38.97454834 130.11621094 C-38.97818036 122.95766641 -38.97340897 115.79916324 -38.96386719 108.640625 C-38.95298411 100.38075318 -38.95651023 92.12098012 -38.96752 83.86111069 C-38.97661467 76.75170933 -38.9778675 69.64233758 -38.97264266 62.53293228 C-38.96953493 58.29452141 -38.96908056 54.05615686 -38.97571564 49.81774902 C-38.98152026 45.83186756 -38.97743553 41.84611264 -38.96592712 37.86024475 C-38.96329714 36.4030427 -38.964017 34.94582988 -38.96845245 33.4886322 C-39.00106193 21.68087628 -38.58527039 11.96706614 -30.703125 2.62109375 C-21.53441208 -4.8284855 -10.26784707 -5.77157646 0 0 Z " fill="#000000" transform="translate(162.703125,158.37890625)"/>
<path d="M0 0 C46.86 0 93.72 0 142 0 C142 16.5 142 33 142 50 C95.14 50 48.28 50 0 50 C0 33.5 0 17 0 0 Z " fill="#000000" transform="translate(185,231)"/>
<path d="M0 0 C9.55889787 2.86766936 13.73858682 4.59268489 19.3125 12.125 C21.8794886 17.00558347 22.32580215 22.59754614 23 28 C23.763125 27.82210937 24.52625 27.64421875 25.3125 27.4609375 C28.86482437 26.85167256 30.734294 27.50321808 34 29 C39.88426481 34.23045761 39.88426481 34.23045761 40.14717102 38.25018311 C40.16193733 39.65533173 40.16193733 39.65533173 40.17700195 41.08886719 C40.19625481 42.68127228 40.19625481 42.68127228 40.21589661 44.30584717 C40.22328354 45.45788635 40.23067047 46.60992554 40.23828125 47.796875 C40.246353 48.97840149 40.25442474 50.15992798 40.26274109 51.3772583 C40.2765917 53.88234994 40.28730946 56.38746052 40.29516602 58.89257812 C40.31236706 62.72041721 40.35624487 66.54739024 40.40039062 70.375 C40.4105183 72.80728531 40.41903417 75.23957797 40.42578125 77.671875 C40.44328934 78.81581726 40.46079742 79.95975952 40.47883606 81.1383667 C40.46181772 87.38717196 40.30545969 91.30879525 36 96 C32.75508367 98.16327755 30.83280719 98.60889723 27 99 C25.65752 98.70565947 24.32094862 98.37945176 23 98 C22.92523438 98.76183594 22.85046875 99.52367187 22.7734375 100.30859375 C21.617261 109.38797983 18.9590029 116.16428032 11.625 121.9375 C7.89542365 124.60558155 4.91183805 124.77204049 0 126 C0 84.42 0 42.84 0 0 Z " fill="#000000" transform="translate(399,193)"/>
<path d="M0 0 C0 41.58 0 83.16 0 126 C-9.55889787 123.13233064 -13.73858682 121.40731511 -19.3125 113.875 C-21.8794886 108.99441653 -22.32580215 103.40245386 -23 98 C-23.763125 98.17789063 -24.52625 98.35578125 -25.3125 98.5390625 C-28.86482437 99.14832744 -30.734294 98.49678192 -34 97 C-39.88426481 91.76954239 -39.88426481 91.76954239 -40.14717102 87.74981689 C-40.15701523 86.81305115 -40.16685944 85.8762854 -40.17700195 84.91113281 C-40.18983719 83.84952942 -40.20267242 82.78792603 -40.21589661 81.69415283 C-40.22328354 80.54211365 -40.23067047 79.39007446 -40.23828125 78.203125 C-40.246353 77.02159851 -40.25442474 75.84007202 -40.26274109 74.6227417 C-40.2765917 72.11765006 -40.28730946 69.61253948 -40.29516602 67.10742188 C-40.31236706 63.27958279 -40.35624487 59.45260976 -40.40039062 55.625 C-40.4105183 53.19271469 -40.41903417 50.76042203 -40.42578125 48.328125 C-40.44328934 47.18418274 -40.46079742 46.04024048 -40.47883606 44.8616333 C-40.46181772 38.61282804 -40.30545969 34.69120475 -36 30 C-32.75508367 27.83672245 -30.83280719 27.39110277 -27 27 C-25.65752 27.29434053 -24.32094862 27.62054824 -23 28 C-22.92523438 27.23816406 -22.85046875 26.47632813 -22.7734375 25.69140625 C-21.614795 16.59265486 -18.9622082 9.79560725 -11.5625 4.0625 C-8.18948701 1.88393927 -4.09999188 0 0 0 Z " fill="#000000" transform="translate(113,193)"/>
</svg>
